<mxfile host="app.diagrams.net" modified="2023-04-07T18:27:05.910Z" agent="Mozilla/5.0 (Macintosh; Intel Mac OS X 10_15_7) AppleWebKit/537.36 (KHTML, like Gecko) Chrome/112.0.0.0 Safari/537.36" etag="XXXfRP4kKQ7W3rWsuBqy" version="21.1.5" type="device">
  <diagram name="Page-1" id="GaNG6oDGA1Vz8KuoANm3">
    <mxGraphModel dx="977" dy="575" grid="1" gridSize="10" guides="1" tooltips="1" connect="1" arrows="1" fold="1" page="1" pageScale="1" pageWidth="850" pageHeight="1100" math="0" shadow="0">
      <root>
        <mxCell id="0" />
        <mxCell id="1" parent="0" />
        <mxCell id="D6WeLkeTT-jsbDda0XaH-23" style="edgeStyle=orthogonalEdgeStyle;rounded=0;orthogonalLoop=1;jettySize=auto;html=1;exitX=0.5;exitY=1;exitDx=0;exitDy=0;entryX=0.5;entryY=0;entryDx=0;entryDy=0;fontFamily=Helvetica;fontSize=11;fontColor=default;" edge="1" parent="1" source="D6WeLkeTT-jsbDda0XaH-1" target="D6WeLkeTT-jsbDda0XaH-5">
          <mxGeometry relative="1" as="geometry" />
        </mxCell>
        <mxCell id="D6WeLkeTT-jsbDda0XaH-24" style="edgeStyle=orthogonalEdgeStyle;rounded=0;orthogonalLoop=1;jettySize=auto;html=1;exitX=0;exitY=0.5;exitDx=0;exitDy=0;entryX=0.5;entryY=0;entryDx=0;entryDy=0;fontFamily=Helvetica;fontSize=11;fontColor=default;" edge="1" parent="1" source="D6WeLkeTT-jsbDda0XaH-1" target="D6WeLkeTT-jsbDda0XaH-4">
          <mxGeometry relative="1" as="geometry" />
        </mxCell>
        <mxCell id="D6WeLkeTT-jsbDda0XaH-25" style="edgeStyle=orthogonalEdgeStyle;rounded=0;orthogonalLoop=1;jettySize=auto;html=1;exitX=1;exitY=0.5;exitDx=0;exitDy=0;entryX=0.5;entryY=0;entryDx=0;entryDy=0;fontFamily=Helvetica;fontSize=11;fontColor=default;" edge="1" parent="1" source="D6WeLkeTT-jsbDda0XaH-1" target="D6WeLkeTT-jsbDda0XaH-6">
          <mxGeometry relative="1" as="geometry" />
        </mxCell>
        <mxCell id="D6WeLkeTT-jsbDda0XaH-1" value="app" style="rounded=1;whiteSpace=wrap;html=1;" vertex="1" parent="1">
          <mxGeometry x="320" y="160" width="80" height="40" as="geometry" />
        </mxCell>
        <mxCell id="D6WeLkeTT-jsbDda0XaH-2" value="common-ui" style="rounded=1;whiteSpace=wrap;html=1;" vertex="1" parent="1">
          <mxGeometry x="440" y="340" width="80" height="40" as="geometry" />
        </mxCell>
        <mxCell id="D6WeLkeTT-jsbDda0XaH-3" value="common-tests-ui" style="rounded=1;whiteSpace=wrap;html=1;" vertex="1" parent="1">
          <mxGeometry x="560" y="340" width="80" height="40" as="geometry" />
        </mxCell>
        <mxCell id="D6WeLkeTT-jsbDda0XaH-17" style="edgeStyle=orthogonalEdgeStyle;rounded=0;orthogonalLoop=1;jettySize=auto;html=1;exitX=1;exitY=0.5;exitDx=0;exitDy=0;entryX=0;entryY=0.5;entryDx=0;entryDy=0;" edge="1" parent="1" source="D6WeLkeTT-jsbDda0XaH-4" target="D6WeLkeTT-jsbDda0XaH-5">
          <mxGeometry relative="1" as="geometry" />
        </mxCell>
        <mxCell id="D6WeLkeTT-jsbDda0XaH-4" value="data" style="rounded=1;whiteSpace=wrap;html=1;" vertex="1" parent="1">
          <mxGeometry x="200" y="240" width="80" height="40" as="geometry" />
        </mxCell>
        <mxCell id="D6WeLkeTT-jsbDda0XaH-5" value="domain" style="rounded=1;whiteSpace=wrap;html=1;" vertex="1" parent="1">
          <mxGeometry x="320" y="240" width="80" height="40" as="geometry" />
        </mxCell>
        <mxCell id="D6WeLkeTT-jsbDda0XaH-16" style="edgeStyle=orthogonalEdgeStyle;rounded=0;orthogonalLoop=1;jettySize=auto;html=1;exitX=0;exitY=0.5;exitDx=0;exitDy=0;entryX=1;entryY=0.5;entryDx=0;entryDy=0;" edge="1" parent="1" source="D6WeLkeTT-jsbDda0XaH-6" target="D6WeLkeTT-jsbDda0XaH-5">
          <mxGeometry relative="1" as="geometry" />
        </mxCell>
        <mxCell id="D6WeLkeTT-jsbDda0XaH-21" style="edgeStyle=orthogonalEdgeStyle;rounded=0;orthogonalLoop=1;jettySize=auto;html=1;exitX=0.25;exitY=1;exitDx=0;exitDy=0;entryX=0.5;entryY=0;entryDx=0;entryDy=0;fontFamily=Helvetica;fontSize=11;fontColor=default;" edge="1" parent="1" source="D6WeLkeTT-jsbDda0XaH-6" target="D6WeLkeTT-jsbDda0XaH-2">
          <mxGeometry relative="1" as="geometry" />
        </mxCell>
        <mxCell id="D6WeLkeTT-jsbDda0XaH-22" value="androidTestImplementation" style="edgeStyle=orthogonalEdgeStyle;rounded=0;orthogonalLoop=1;jettySize=auto;html=1;exitX=0.75;exitY=1;exitDx=0;exitDy=0;entryX=0.5;entryY=0;entryDx=0;entryDy=0;fontFamily=Helvetica;fontSize=11;fontColor=default;dashed=1;" edge="1" parent="1" source="D6WeLkeTT-jsbDda0XaH-6" target="D6WeLkeTT-jsbDda0XaH-3">
          <mxGeometry relative="1" as="geometry" />
        </mxCell>
        <mxCell id="D6WeLkeTT-jsbDda0XaH-6" value="" style="swimlane;startSize=0;" vertex="1" parent="1">
          <mxGeometry x="440" y="220" width="200" height="80" as="geometry">
            <mxRectangle x="600" y="240" width="80" height="40" as="alternateBounds" />
          </mxGeometry>
        </mxCell>
        <mxCell id="D6WeLkeTT-jsbDda0XaH-10" value="feature_1" style="rounded=1;whiteSpace=wrap;html=1;" vertex="1" parent="D6WeLkeTT-jsbDda0XaH-6">
          <mxGeometry x="10" y="20" width="80" height="40" as="geometry" />
        </mxCell>
        <mxCell id="D6WeLkeTT-jsbDda0XaH-11" value="feature_2" style="rounded=1;whiteSpace=wrap;html=1;" vertex="1" parent="D6WeLkeTT-jsbDda0XaH-6">
          <mxGeometry x="110" y="20" width="80" height="40" as="geometry" />
        </mxCell>
      </root>
    </mxGraphModel>
  </diagram>
</mxfile>
